<svg width="243" height="100" viewBox="0 0 243 100" fill="none" xmlns="http://www.w3.org/2000/svg">
    <path d="M46.7181 70.5036C46.7181 68.2748 44.3993 66.7538 42.2594 67.3767C41.603 67.5678 40.9263 67.7468 40.2295 67.9137C37.8263 68.3933 35.0866 68.6331 32.0105 68.6331C27.6848 68.6331 23.5513 68.0575 19.6101 66.9065C15.7649 65.6595 12.4005 63.693 9.51665 61.0072C6.63281 58.3213 4.32575 54.8201 2.59545 50.5036C0.86515 46.187 0 40.9113 0 34.6763C0 29.0168 0.86515 24.0288 2.59545 19.7122C4.32575 15.3957 6.777 11.7986 9.94922 8.92086C13.2176 5.94724 17.0627 3.74101 21.4846 2.30216C26.0026 0.767386 31.0012 0 36.4805 0C41.8636 0 46.7661 0.719424 51.188 2.15827C55.706 3.5012 59.2147 4.98801 61.714 6.6187C63.5404 7.86571 64.9823 9.30456 66.0397 10.9353C67.0972 12.47 67.6259 14.4365 67.6259 16.8345V71.0791C67.6259 76.0671 66.7126 80.3837 64.8862 84.0288C63.0598 87.6739 60.5124 90.6475 57.2441 92.9496C54.0719 95.3477 50.3229 97.1223 45.9971 98.2734C41.6714 99.4245 37.0092 100 32.0105 100C26.8196 100 22.3016 99.5684 18.4565 98.705C14.7075 97.8417 11.7276 96.7386 9.51665 95.3957C6.2483 93.0935 4.61413 90.024 4.61413 86.187C4.61413 84.1727 5.04671 82.3022 5.91186 80.5755C7.23849 78.075 10.3585 77.9255 12.9632 79.0337C14.5472 79.7077 16.2342 80.3176 18.024 80.8633C21.5807 82.0144 25.3297 82.5899 29.2709 82.5899C34.654 82.5899 38.8837 81.6307 41.9598 79.7122C45.132 77.8897 46.7181 74.8201 46.7181 70.5036ZM35.9037 52.0863C38.2108 52.0863 40.1814 51.7985 41.8156 51.223C44.8972 50.198 46.4297 46.9927 46.4297 43.7451V23.5759C46.4297 21.0623 44.9216 18.7789 42.5365 17.9856C41.1907 17.506 39.4604 17.2662 37.3456 17.2662C32.7315 17.2662 28.9825 18.705 26.0987 21.5827C23.311 24.3645 21.9171 28.777 21.9171 34.8201C21.9171 38.0815 22.2536 40.8153 22.9265 43.0216C23.6955 45.2278 24.7048 47.0024 25.9545 48.3453C27.2041 49.6882 28.6461 50.6475 30.2802 51.223C32.0105 51.7985 33.885 52.0863 35.9037 52.0863Z" fill="white" />
    <path d="M105.919 67.117C105.919 69.5538 104.303 71.6739 101.882 71.9424C100.151 72.2302 98.2286 72.3741 96.1138 72.3741C91.7881 72.3741 88.6639 71.7026 86.7414 70.3597C84.8188 68.9209 83.8576 66.187 83.8576 62.1583V18.2734C83.8576 15.5875 84.5304 13.2854 85.8762 11.3669C87.222 9.44845 89.0965 7.76978 91.4997 6.33093C94.6719 4.41247 98.469 2.92566 102.891 1.87051C107.409 0.719424 112.119 0.143883 117.022 0.143883C127.019 0.143883 132.018 3.5012 132.018 10.2158C132.018 11.8465 131.777 13.3333 131.297 14.6763C130.53 16.8189 128.214 17.7792 125.947 17.5823C124.625 17.4675 123.188 17.4101 121.636 17.4101C118.848 17.4101 116.06 17.7458 113.273 18.4173C108.558 19.5529 105.919 24.1695 105.919 29.019V67.117Z" fill="white" />
    <path d="M164.822 67.0947C164.895 69.515 163.315 71.6514 160.909 71.9183C159.178 72.206 157.256 72.3499 155.141 72.3499C150.815 72.3499 147.092 72.2298 145.169 70.8869C143.343 69.448 143.029 66.1629 143.029 62.1341L143.45 43.2691C143.513 40.4217 144.162 37.3272 146.575 35.815C149.269 33.6377 153.166 33.066 156.577 33.6682C157.162 33.7715 157.71 33.9079 158.169 34.0765C162.423 35.2556 164.012 40.2255 164.145 44.6375L164.822 67.0947ZM141.407 10.8033C141.407 7.54186 142.777 6.12691 145.12 3.93267C147.463 1.73842 150.371 0.143984 154.024 0.143984C157.676 0.143984 160.825 1.63051 163.036 3.93267C166.75 7.6395 167.371 13.7039 165.399 18.5672C165.043 19.4468 164.568 20.2335 163.937 20.8633C161.726 23.1655 157.773 25.0478 153.843 25.0478C149.914 25.0478 145.854 22.4939 143.547 20.1917C141.336 17.8896 141.407 14.1606 141.407 10.8033Z" fill="white" />
    <path d="M210.701 57.4101C212.816 57.4101 214.883 57.2182 216.901 56.8345C217.116 56.7859 217.325 56.7363 217.528 56.6857C220.212 56.0186 221.66 53.4328 221.66 50.6676C221.66 45.9348 217.61 42.2155 212.894 42.6172L209.836 42.8777C206.76 43.1655 204.261 43.8849 202.338 45.036C200.512 46.0911 199.598 47.7218 199.598 49.928C199.598 52.2302 200.463 54.0527 202.194 55.3957C203.924 56.7386 206.76 57.4101 210.701 57.4101ZM209.836 0C214.835 0 219.353 0.527577 223.39 1.58273C227.523 2.54197 231.032 4.07674 233.916 6.18705C236.8 8.29736 239.011 10.9832 240.549 14.2446C242.183 17.506 243 21.3429 243 25.7554V58.2734C243 60.7674 242.327 62.7818 240.981 64.3165C239.732 65.7554 238.194 67.0024 236.367 68.0575C233.387 69.8801 229.734 71.271 225.409 72.2302C221.083 73.1895 216.18 73.6691 210.701 73.6691C200.8 73.6691 192.917 71.7986 187.054 68.0575C181.19 64.2206 178.258 58.4172 178.258 50.6475C178.258 44.0288 180.229 38.9928 184.17 35.5396C188.111 32.0863 194.167 29.9281 202.338 29.0647L219.941 27.2157C220.836 27.1217 221.515 26.3673 221.515 25.4676C221.515 22.3981 220.266 20.1439 217.766 18.705C215.267 17.2662 211.662 16.5468 206.952 16.5468C203.299 16.5468 199.694 16.9784 196.138 17.8417C194.377 18.2809 192.704 18.7574 191.117 19.2711C188.361 20.1637 185.16 19.9343 183.737 17.4101C182.968 15.7794 182.584 14.0528 182.584 12.2302C182.584 8.0096 184.795 4.98801 189.217 3.16547C192.004 2.11031 195.225 1.34293 198.877 0.863311C202.626 0.287771 206.279 0 209.836 0Z" fill="white" />
</svg>